<svg width="36" height="36" viewBox="0 0 36 36" fill="none" xmlns="http://www.w3.org/2000/svg">
<rect x="0.310345" y="0.310345" width="35.3793" height="35.3793" rx="4.65517" fill="currentColor" fill-opacity="0.12" stroke="currentColor" stroke-width="0.62069"/>
<path d="M23.688 11.437L18.0005 14.937L12.313 11.437V5.31201H23.688V11.437Z" fill="#212529"/>
<path d="M21.5 5.31201V12.7845L18 14.937L14.5 12.7845V5.31201H21.5Z" fill="currentColor"/>
<path d="M18 14.9368L20.8394 13.1868C18.9896 12.5959 17.0016 12.5959 15.1519 13.1868L18 14.9368Z" fill="currentColor"/>
<path d="M18 30.6869C22.7117 30.6869 26.5312 26.8673 26.5312 22.1556C26.5312 17.444 22.7117 13.6244 18 13.6244C13.2883 13.6244 9.46875 17.444 9.46875 22.1556C9.46875 26.8673 13.2883 30.6869 18 30.6869Z" fill="#FCCD1D"/>
<path d="M18 28.4997C21.5036 28.4997 24.3437 25.6595 24.3437 22.1559C24.3437 18.6524 21.5036 15.8122 18 15.8122C14.4964 15.8122 11.6562 18.6524 11.6562 22.1559C11.6562 25.6595 14.4964 28.4997 18 28.4997Z" fill="#F9A215"/>
<path d="M18.9316 23.0879V18.4372H17.0723C17.0723 18.8074 16.9252 19.1624 16.6635 19.4241C16.4018 19.6858 16.0468 19.8328 15.6766 19.8328H15.2129V21.6922H17.0723V23.0879C17.0711 23.3342 16.9724 23.5701 16.7978 23.744C16.6231 23.9178 16.3868 24.0154 16.1404 24.0153H15.2129V25.8747H20.791V24.0153H19.8591C19.6132 24.0153 19.3772 23.9176 19.2033 23.7437C19.0294 23.5698 18.9316 23.3338 18.9316 23.0879Z" fill="#FCCD1D"/>
</svg>
