<svg width="36" height="36" viewBox="0 0 36 36" fill="none" xmlns="http://www.w3.org/2000/svg">
<g clip-path="url(#clip0_66_17547)">
<mask id="mask0_66_17547" style="mask-type:luminance" maskUnits="userSpaceOnUse" x="0" y="0" width="36" height="36">
<path d="M0 0H36V36H0V0Z" fill="white"/>
</mask>
<g mask="url(#mask0_66_17547)">
<path d="M24.9374 30.0161C31.5737 26.1846 33.8474 17.6989 30.016 11.0625C26.1844 4.42614 17.6987 2.15251 11.0624 5.98389C4.42599 9.81564 2.15236 18.3011 5.98374 24.9375C9.81549 31.5739 18.301 33.8475 24.9374 30.0161Z" stroke="#AC00EA" stroke-width="2.25" stroke-linecap="round" stroke-linejoin="round"/>
<path d="M12.1942 30.4449C9.94421 26.5479 8.29478 17.541 9.85365 16.641C11.4125 15.741 14.4182 18.047 15.7262 19.3125C17.4873 17.8627 18.1368 17.4877 20.2728 16.6875C19.8309 14.922 19.3367 11.1658 20.8955 10.266C22.4544 9.36598 29.4298 15.2979 31.6798 19.1949" stroke="#AC00EA" stroke-width="2.25" stroke-linejoin="round"/>
<path d="M17.6906 26.8391C18.4081 26.4249 18.5699 25.3621 18.0522 24.4653C17.5344 23.5685 16.5331 23.1773 15.8156 23.5915C15.0982 24.0057 14.9363 25.0685 15.4541 25.9653C15.9719 26.8621 16.9732 27.2533 17.6906 26.8391Z" fill="#AC00EA"/>
<path d="M25.8093 22.1515C26.5267 21.7373 26.6886 20.6745 26.1708 19.7777C25.6531 18.8809 24.6517 18.4897 23.9343 18.9039C23.2169 19.3181 23.055 20.3809 23.5728 21.2777C24.0905 22.1745 25.0919 22.5657 25.8093 22.1515Z" fill="#AC00EA"/>
</g>
</g>
<defs>
<clipPath id="clip0_66_17547">
<rect width="36" height="36" fill="white"/>
</clipPath>
</defs>
</svg>
