<svg viewBox="0 0 182 153" fill="none" xmlns="http://www.w3.org/2000/svg">
<path d="M95.8414 82.9984C96.7635 82.9984 97.4612 83.2854 97.9769 83.8838C98.2135 84.1342 98.3773 84.4212 98.4622 84.7327L98.529 84.9769H101.611L101.502 84.5556C101.301 83.7984 100.943 83.0778 100.434 82.4122C99.2509 80.9771 97.7099 80.2504 95.8414 80.2504C94.1731 80.2504 92.7595 80.8367 91.6372 81.9969C90.5209 83.1511 89.9507 84.635 89.9507 86.3937C89.9507 88.1523 90.5149 89.6362 91.6372 90.7965C92.7595 91.9567 94.1731 92.543 95.8414 92.543C97.7221 92.543 99.2691 91.8224 100.44 90.3996C100.943 89.7523 101.301 89.0256 101.502 88.2378L101.611 87.8165H98.6624L98.5835 88.0363C98.4683 88.36 98.2923 88.6531 98.0618 88.9096C97.5279 89.5019 96.8 89.7889 95.8475 89.7889C95.0406 89.7889 94.3854 89.4897 93.8455 88.8729C93.2995 88.2562 93.0265 87.4196 93.0265 86.3998C93.0265 85.38 93.2995 84.5434 93.8455 83.9266C94.3915 83.3098 95.0467 83.0106 95.8535 83.0106L95.8414 82.9984Z" fill="black"/>
<path d="M109.237 80.2444C107.526 80.2444 106.064 80.8428 104.893 82.0214C103.722 83.1999 103.127 84.6716 103.127 86.3937C103.127 88.1157 103.722 89.5874 104.893 90.766C106.064 91.9446 107.526 92.543 109.237 92.543C110.947 92.543 112.403 91.9446 113.58 90.766C114.751 89.5874 115.346 88.1157 115.346 86.3937C115.346 84.6716 114.751 83.1999 113.58 82.0214C112.409 80.8428 110.947 80.2444 109.237 80.2444ZM111.433 88.873C110.869 89.4897 110.147 89.7828 109.237 89.7828C108.327 89.7828 107.605 89.4836 107.04 88.873C106.47 88.2501 106.191 87.4379 106.191 86.3937C106.191 85.3495 106.476 84.5251 107.04 83.9144C107.605 83.2976 108.327 83.0045 109.237 83.0045C110.147 83.0045 110.869 83.3037 111.433 83.9144C111.997 84.5251 112.282 85.3617 112.282 86.3937C112.282 87.4257 112.003 88.2562 111.433 88.873Z" fill="black"/>
<path d="M120.678 77.6551H117.724V92.317H123.184V89.563H120.678V77.6551Z" fill="black"/>
<path d="M128.085 77.6551H125.131V92.317H130.591V89.563H128.085V77.6551Z" fill="black"/>
<path d="M140.759 88.3966C140.577 88.6653 140.365 88.8974 140.104 89.0928C139.558 89.5508 138.811 89.7828 137.877 89.7828C137.125 89.7828 136.482 89.5508 135.912 89.0744C135.432 88.6714 135.111 88.1523 134.923 87.4989H143.877V86.3937C143.877 84.6716 143.289 83.206 142.136 82.0274C140.977 80.8489 139.546 80.2504 137.877 80.2504C136.209 80.2504 134.777 80.8489 133.624 82.0274C132.472 83.206 131.883 84.6777 131.883 86.3937C131.883 88.1096 132.472 89.5874 133.624 90.766C134.783 91.9445 136.215 92.543 137.877 92.543C139.703 92.543 141.262 91.9018 142.518 90.6377C143.003 90.1187 143.416 89.4714 143.738 88.7203L143.938 88.25H140.856L140.759 88.4027V88.3966ZM135.99 83.6396C136.549 83.206 137.161 82.9984 137.877 82.9984C138.733 82.9984 139.388 83.2182 139.885 83.6762C140.28 84.0426 140.559 84.4701 140.716 84.9586H135.05C135.238 84.4212 135.548 83.9877 135.99 83.6396Z" fill="black"/>
<path d="M154.427 81.5206C154.281 81.3863 154.118 81.2581 153.948 81.1359C153.111 80.5436 152.17 80.2444 151.163 80.2444C149.58 80.2444 148.239 80.8245 147.183 81.9603C146.134 83.0961 145.6 84.58 145.6 86.3876C145.6 88.1951 146.134 89.6851 147.183 90.8148C148.239 91.9568 149.574 92.5308 151.163 92.5308C152.188 92.5308 153.123 92.2377 153.948 91.6576C154.118 91.5354 154.275 91.4133 154.427 91.2728V93.7216H147.238V96.4756H157.382V80.4581H154.427V81.5145V81.5206ZM153.651 88.9157C153.135 89.4958 152.468 89.7767 151.6 89.7767C150.672 89.7767 149.968 89.4958 149.452 88.9218C148.931 88.3478 148.67 87.4929 148.67 86.3815C148.67 85.2701 148.931 84.4213 149.452 83.8472C149.974 83.2732 150.678 82.9923 151.6 82.9923C152.468 82.9923 153.135 83.2732 153.651 83.8533C154.166 84.4396 154.427 85.2884 154.427 86.3815C154.427 87.4745 154.166 88.3295 153.651 88.9096V88.9157Z" fill="black"/>
<path d="M168.271 88.2439L168.174 88.3966C167.992 88.6653 167.78 88.8974 167.519 89.0928C166.973 89.5508 166.227 89.7828 165.293 89.7828C164.54 89.7828 163.897 89.5508 163.327 89.0744C162.848 88.6714 162.526 88.1523 162.338 87.4989H171.293V86.3937C171.293 84.6716 170.704 83.206 169.552 82.0274C168.393 80.8489 166.961 80.2504 165.293 80.2504C163.624 80.2504 162.193 80.8489 161.04 82.0274C159.887 83.206 159.299 84.6777 159.299 86.3937C159.299 88.1096 159.887 89.5874 161.04 90.766C162.199 91.9445 163.63 92.543 165.293 92.543C167.119 92.543 168.678 91.9018 169.934 90.6377C170.419 90.1187 170.832 89.4714 171.153 88.7203L171.353 88.25H168.271V88.2439ZM163.406 83.6396C163.964 83.206 164.577 82.9984 165.293 82.9984C166.148 82.9984 166.803 83.2182 167.301 83.6762C167.695 84.0426 167.974 84.4701 168.132 84.9586H162.466C162.654 84.4212 162.963 83.9877 163.406 83.6396Z" fill="black"/>
<path d="M15.9374 22.2745H10.6533V27.5934H15.9374V22.2745Z" fill="#1D1D1B" stroke="#1D1D1B" stroke-width="0.151667" stroke-miterlimit="10"/>
<path d="M21.2211 22.2745H15.937V27.5934H21.2211V22.2745Z" fill="#1D1D1B" stroke="#1D1D1B" stroke-width="0.151667" stroke-miterlimit="10"/>
<path d="M26.5053 22.2745H21.2212V27.5934H26.5053V22.2745Z" fill="#1D1D1B" stroke="#1D1D1B" stroke-width="0.151667" stroke-miterlimit="10"/>
<path d="M31.7953 22.2745H26.5112V27.5934H31.7953V22.2745Z" fill="#1D1D1B" stroke="#1D1D1B" stroke-width="0.151667" stroke-miterlimit="10"/>
<path d="M37.0795 22.2745H31.7954V27.5934H37.0795V22.2745Z" fill="#1D1D1B" stroke="#1D1D1B" stroke-width="0.151667" stroke-miterlimit="10"/>
<path d="M37.0795 27.5995H31.7954V32.9183H37.0795V27.5995Z" fill="#1D1D1B" stroke="#1D1D1B" stroke-width="0.151667" stroke-miterlimit="10"/>
<path d="M37.0795 32.9183H31.7954V38.2372H37.0795V32.9183Z" fill="#1D1D1B" stroke="#1D1D1B" stroke-width="0.151667" stroke-miterlimit="10"/>
<path d="M37.0795 38.2433H31.7954V43.5621H37.0795V38.2433Z" fill="#1D1D1B" stroke="#1D1D1B" stroke-width="0.151667" stroke-miterlimit="10"/>
<path d="M37.0795 43.5621H31.7954V48.8809H37.0795V43.5621Z" fill="#1D1D1B" stroke="#1D1D1B" stroke-width="0.151667" stroke-miterlimit="10"/>
<path d="M31.7953 43.5621H26.5112V48.8809H31.7953V43.5621Z" fill="#1D1D1B" stroke="#1D1D1B" stroke-width="0.151667" stroke-miterlimit="10"/>
<path d="M26.5053 43.5621H21.2212V48.8809H26.5053V43.5621Z" fill="#1D1D1B" stroke="#1D1D1B" stroke-width="0.151667" stroke-miterlimit="10"/>
<path d="M21.2211 43.5621H15.937V48.8809H21.2211V43.5621Z" fill="#1D1D1B" stroke="#1D1D1B" stroke-width="0.151667" stroke-miterlimit="10"/>
<path d="M15.9374 43.5621H10.6533V48.8809H15.9374V43.5621Z" fill="#1D1D1B" stroke="#1D1D1B" stroke-width="0.151667" stroke-miterlimit="10"/>
<path d="M15.9374 38.2433H10.6533V43.5621H15.9374V38.2433Z" fill="#1D1D1B" stroke="#1D1D1B" stroke-width="0.151667" stroke-miterlimit="10"/>
<path d="M15.9374 32.9183H10.6533V38.2372H15.9374V32.9183Z" fill="#1D1D1B" stroke="#1D1D1B" stroke-width="0.151667" stroke-miterlimit="10"/>
<path d="M15.9374 27.5995H10.6533V32.9183H15.9374V27.5995Z" fill="#1D1D1B" stroke="#1D1D1B" stroke-width="0.151667" stroke-miterlimit="10"/>
<path d="M26.5053 32.9183H21.2212V38.2372H26.5053V32.9183Z" fill="#1D1D1B" stroke="#1D1D1B" stroke-width="0.151667" stroke-miterlimit="10"/>
<path d="M95.2347 22.2745H89.9507V27.5934H95.2347V22.2745Z" fill="#1D1D1B" stroke="#1D1D1B" stroke-width="0.151667" stroke-miterlimit="10"/>
<path d="M100.525 22.2745H95.2407V27.5934H100.525V22.2745Z" fill="#1D1D1B" stroke="#1D1D1B" stroke-width="0.151667" stroke-miterlimit="10"/>
<path d="M105.809 22.2745H100.525V27.5934H105.809V22.2745Z" fill="#1D1D1B" stroke="#1D1D1B" stroke-width="0.151667" stroke-miterlimit="10"/>
<path d="M111.099 22.2745H105.815V27.5934H111.099V22.2745Z" fill="#1D1D1B" stroke="#1D1D1B" stroke-width="0.151667" stroke-miterlimit="10"/>
<path d="M116.383 22.2745H111.099V27.5934H116.383V22.2745Z" fill="#1D1D1B" stroke="#1D1D1B" stroke-width="0.151667" stroke-miterlimit="10"/>
<path d="M116.383 27.5995H111.099V32.9183H116.383V27.5995Z" fill="#1D1D1B" stroke="#1D1D1B" stroke-width="0.151667" stroke-miterlimit="10"/>
<path d="M116.383 32.9183H111.099V38.2372H116.383V32.9183Z" fill="#1D1D1B" stroke="#1D1D1B" stroke-width="0.151667" stroke-miterlimit="10"/>
<path d="M116.383 38.2433H111.099V43.5621H116.383V38.2433Z" fill="#1D1D1B" stroke="#1D1D1B" stroke-width="0.151667" stroke-miterlimit="10"/>
<path d="M116.383 43.5621H111.099V48.8809H116.383V43.5621Z" fill="#1D1D1B" stroke="#1D1D1B" stroke-width="0.151667" stroke-miterlimit="10"/>
<path d="M111.099 43.5621H105.815V48.8809H111.099V43.5621Z" fill="#1D1D1B" stroke="#1D1D1B" stroke-width="0.151667" stroke-miterlimit="10"/>
<path d="M105.809 43.5621H100.525V48.8809H105.809V43.5621Z" fill="#1D1D1B" stroke="#1D1D1B" stroke-width="0.151667" stroke-miterlimit="10"/>
<path d="M100.525 43.5621H95.2407V48.8809H100.525V43.5621Z" fill="#1D1D1B" stroke="#1D1D1B" stroke-width="0.151667" stroke-miterlimit="10"/>
<path d="M95.2347 43.5621H89.9507V48.8809H95.2347V43.5621Z" fill="#1D1D1B" stroke="#1D1D1B" stroke-width="0.151667" stroke-miterlimit="10"/>
<path d="M95.2347 38.2433H89.9507V43.5621H95.2347V38.2433Z" fill="#1D1D1B" stroke="#1D1D1B" stroke-width="0.151667" stroke-miterlimit="10"/>
<path d="M95.2347 32.9183H89.9507V38.2372H95.2347V32.9183Z" fill="#1D1D1B" stroke="#1D1D1B" stroke-width="0.151667" stroke-miterlimit="10"/>
<path d="M95.2347 27.5995H89.9507V32.9183H95.2347V27.5995Z" fill="#1D1D1B" stroke="#1D1D1B" stroke-width="0.151667" stroke-miterlimit="10"/>
<path d="M15.9374 102.1H10.6533V107.419H15.9374V102.1Z" fill="#1D1D1B" stroke="#1D1D1B" stroke-width="0.151667" stroke-miterlimit="10"/>
<path d="M21.2211 102.1H15.937V107.419H21.2211V102.1Z" fill="#1D1D1B" stroke="#1D1D1B" stroke-width="0.151667" stroke-miterlimit="10"/>
<path d="M26.5053 102.1H21.2212V107.419H26.5053V102.1Z" fill="#1D1D1B" stroke="#1D1D1B" stroke-width="0.151667" stroke-miterlimit="10"/>
<path d="M31.7953 102.1H26.5112V107.419H31.7953V102.1Z" fill="#1D1D1B" stroke="#1D1D1B" stroke-width="0.151667" stroke-miterlimit="10"/>
<path d="M37.0795 102.1H31.7954V107.419H37.0795V102.1Z" fill="#1D1D1B" stroke="#1D1D1B" stroke-width="0.151667" stroke-miterlimit="10"/>
<path d="M37.0795 107.425H31.7954V112.744H37.0795V107.425Z" fill="#1D1D1B" stroke="#1D1D1B" stroke-width="0.151667" stroke-miterlimit="10"/>
<path d="M37.0795 112.744H31.7954V118.062H37.0795V112.744Z" fill="#1D1D1B" stroke="#1D1D1B" stroke-width="0.151667" stroke-miterlimit="10"/>
<path d="M37.0795 118.068H31.7954V123.387H37.0795V118.068Z" fill="#1D1D1B" stroke="#1D1D1B" stroke-width="0.151667" stroke-miterlimit="10"/>
<path d="M37.0795 123.387H31.7954V128.706H37.0795V123.387Z" fill="#1D1D1B" stroke="#1D1D1B" stroke-width="0.151667" stroke-miterlimit="10"/>
<path d="M31.7953 123.387H26.5112V128.706H31.7953V123.387Z" fill="#1D1D1B" stroke="#1D1D1B" stroke-width="0.151667" stroke-miterlimit="10"/>
<path d="M26.5053 123.387H21.2212V128.706H26.5053V123.387Z" fill="#1D1D1B" stroke="#1D1D1B" stroke-width="0.151667" stroke-miterlimit="10"/>
<path d="M21.2211 123.387H15.937V128.706H21.2211V123.387Z" fill="#1D1D1B" stroke="#1D1D1B" stroke-width="0.151667" stroke-miterlimit="10"/>
<path d="M15.9374 123.387H10.6533V128.706H15.9374V123.387Z" fill="#1D1D1B" stroke="#1D1D1B" stroke-width="0.151667" stroke-miterlimit="10"/>
<path d="M15.9374 118.068H10.6533V123.387H15.9374V118.068Z" fill="#1D1D1B" stroke="#1D1D1B" stroke-width="0.151667" stroke-miterlimit="10"/>
<path d="M15.9374 112.744H10.6533V118.062H15.9374V112.744Z" fill="#1D1D1B" stroke="#1D1D1B" stroke-width="0.151667" stroke-miterlimit="10"/>
<path d="M15.9374 107.425H10.6533V112.744H15.9374V107.425Z" fill="#1D1D1B" stroke="#1D1D1B" stroke-width="0.151667" stroke-miterlimit="10"/>
<path d="M95.2347 102.1H89.9507V107.419H95.2347V102.1Z" fill="#1D1D1B" stroke="#1D1D1B" stroke-width="0.151667" stroke-miterlimit="10"/>
<path d="M100.525 102.1H95.2407V107.419H100.525V102.1Z" fill="#1D1D1B" stroke="#1D1D1B" stroke-width="0.151667" stroke-miterlimit="10"/>
<path d="M105.809 102.1H100.525V107.419H105.809V102.1Z" fill="#1D1D1B" stroke="#1D1D1B" stroke-width="0.151667" stroke-miterlimit="10"/>
<path d="M111.099 102.1H105.815V107.419H111.099V102.1Z" fill="#1D1D1B" stroke="#1D1D1B" stroke-width="0.151667" stroke-miterlimit="10"/>
<path d="M116.383 102.1H111.099V107.419H116.383V102.1Z" fill="#1D1D1B" stroke="#1D1D1B" stroke-width="0.151667" stroke-miterlimit="10"/>
<path d="M116.383 107.425H111.099V112.744H116.383V107.425Z" fill="#1D1D1B" stroke="#1D1D1B" stroke-width="0.151667" stroke-miterlimit="10"/>
<path d="M116.383 112.744H111.099V118.062H116.383V112.744Z" fill="#1D1D1B" stroke="#1D1D1B" stroke-width="0.151667" stroke-miterlimit="10"/>
<path d="M116.383 118.068H111.099V123.387H116.383V118.068Z" fill="#1D1D1B" stroke="#1D1D1B" stroke-width="0.151667" stroke-miterlimit="10"/>
<path d="M116.383 123.387H111.099V128.706H116.383V123.387Z" fill="#1D1D1B" stroke="#1D1D1B" stroke-width="0.151667" stroke-miterlimit="10"/>
<path d="M111.099 123.387H105.815V128.706H111.099V123.387Z" fill="#1D1D1B" stroke="#1D1D1B" stroke-width="0.151667" stroke-miterlimit="10"/>
<path d="M105.809 123.387H100.525V128.706H105.809V123.387Z" fill="#1D1D1B" stroke="#1D1D1B" stroke-width="0.151667" stroke-miterlimit="10"/>
<path d="M100.525 123.387H95.2407V128.706H100.525V123.387Z" fill="#1D1D1B" stroke="#1D1D1B" stroke-width="0.151667" stroke-miterlimit="10"/>
<path d="M95.2347 123.387H89.9507V128.706H95.2347V123.387Z" fill="#1D1D1B" stroke="#1D1D1B" stroke-width="0.151667" stroke-miterlimit="10"/>
<path d="M95.2347 118.068H89.9507V123.387H95.2347V118.068Z" fill="#1D1D1B" stroke="#1D1D1B" stroke-width="0.151667" stroke-miterlimit="10"/>
<path d="M95.2347 112.744H89.9507V118.062H95.2347V112.744Z" fill="#1D1D1B" stroke="#1D1D1B" stroke-width="0.151667" stroke-miterlimit="10"/>
<path d="M95.2347 107.425H89.9507V112.744H95.2347V107.425Z" fill="#1D1D1B" stroke="#1D1D1B" stroke-width="0.151667" stroke-miterlimit="10"/>
<path d="M117.681 61.1796C116.613 61.1796 115.643 61.4972 114.793 62.1322C114.654 62.2422 114.533 62.3521 114.417 62.462V58.6515H111.463V73.2523H114.417V66.8893C114.417 66.0038 114.678 65.2832 115.188 64.7397C115.703 64.1963 116.34 63.9337 117.135 63.9337C117.93 63.9337 118.5 64.1291 118.864 64.5199C119.234 64.9168 119.416 65.5641 119.416 66.4496V73.2523H122.371V66.2298C122.371 64.6115 121.952 63.3536 121.133 62.4864C120.308 61.6193 119.143 61.1796 117.681 61.1796Z" fill="#1D1D1B"/>
<path d="M129.299 73.4722C130.367 73.4722 131.338 73.1546 132.187 72.5196C132.32 72.4096 132.448 72.2997 132.557 72.1898V73.2523H135.511V61.3995H132.557V67.7625C132.557 68.6602 132.308 69.3625 131.786 69.912C131.271 70.4555 130.634 70.7181 129.839 70.7181C129.044 70.7181 128.474 70.5227 128.11 70.1319C127.74 69.735 127.558 69.0877 127.558 68.2022V61.3995H124.604V68.422C124.604 70.0403 125.022 71.2982 125.841 72.1593C126.666 73.0325 127.831 73.4722 129.299 73.4722Z" fill="#1D1D1B"/>
<path d="M149.519 67.3289C149.519 65.5275 148.985 64.0375 147.936 62.9017C146.88 61.7597 145.546 61.1857 143.956 61.1857C142.949 61.1857 142.009 61.4849 141.172 62.0773C141.002 62.1933 140.844 62.3215 140.692 62.4559V58.6515H137.738V73.2523H140.692V72.2142C140.838 72.3485 141.002 72.4768 141.172 72.5989C141.991 73.179 142.931 73.4722 143.956 73.4722C145.54 73.4722 146.88 72.892 147.936 71.7562C148.985 70.6204 149.519 69.1304 149.519 67.3289ZM145.673 69.8693C145.151 70.4433 144.454 70.7242 143.525 70.7242C142.658 70.7242 141.991 70.4433 141.475 69.8632C140.959 69.2769 140.698 68.4281 140.698 67.335C140.698 66.242 140.959 65.3932 141.475 64.8069C141.991 64.2268 142.658 63.9459 143.525 63.9459C144.454 63.9459 145.157 64.2268 145.673 64.8008C146.195 65.3748 146.462 66.2298 146.462 67.335C146.462 68.4403 146.201 69.2953 145.673 69.8754V69.8693Z" fill="#1D1D1B"/>
<path d="M92.8142 73.2523H93.5058H95.0892H96.1387V70.4983H95.0892H94.5249V61.4056H95.0892H96.1387V58.6515H95.0892H93.5058H92.8142H92.5897H89.9507V61.4056H91.5705V70.4983H89.9507V73.2523H92.5897H92.8142Z" fill="#1D1D1B"/>
<path d="M105.099 73.1363V61.4056H109.237V58.6515H98.0132V61.4056H102.145V73.1363H105.099Z" fill="#1D1D1B"/>
</svg>
