<svg width="51" height="40" viewBox="0 0 51 40" fill="none" xmlns="http://www.w3.org/2000/svg">
<rect x="1.61627" y="1" width="47.7674" height="38" rx="3" fill="#F4F6FA" stroke="#AC00EA" stroke-width="2"/>
<path d="M12.7286 26.5817L3.2059 35.6118C2.5151 36.2669 2.39377 37.3232 2.91804 38.1178C3.28141 38.6686 3.89711 39 4.55693 39H45.3458C47.6143 39 49.4287 37.1156 49.343 34.8487L49.2791 33.1614C49.2418 32.1742 48.8404 31.2357 48.1523 30.5267L36.8807 18.9136C35.2579 17.2416 32.5551 17.3051 31.0125 19.0514L24.3092 26.6401C22.8027 28.3455 20.179 28.4524 18.5388 26.8753L18.2534 26.6009C16.7127 25.1194 14.2795 25.111 12.7286 26.5817Z" fill="#AC00EA" fill-opacity="0.4" stroke="#AC00EA" stroke-width="2"/>
<circle cx="12.7098" cy="12.0931" r="3.65116" fill="#AC00EA" fill-opacity="0.12" stroke="#AC00EA" stroke-width="2"/>
</svg>
