<svg width="36" height="36" viewBox="0 0 36 36" fill="none" xmlns="http://www.w3.org/2000/svg">
<rect x="0.310345" y="0.310345" width="35.3793" height="35.3793" rx="4.65517" fill="#AC00EA" fill-opacity="0.12" stroke="#AC00EA" stroke-width="0.62069"/>
<path d="M18.0001 26.7932C22.8564 26.7932 26.7932 22.8564 26.7932 18.0001C26.7932 13.1438 22.8564 9.207 18.0001 9.207C13.1438 9.207 9.20703 13.1438 9.20703 18.0001C9.20703 22.8564 13.1438 26.7932 18.0001 26.7932Z" stroke="#AC00EA" stroke-width="1.5" stroke-linecap="round" stroke-linejoin="round"/>
<path d="M11.8447 11.8449L24.1551 24.1552" stroke="#AC00EA" stroke-width="1.5" stroke-linecap="round" stroke-linejoin="round"/>
<path d="M24.1551 11.8449L11.8447 24.1552" stroke="#AC00EA" stroke-width="1.5" stroke-linecap="round" stroke-linejoin="round"/>
<path d="M18.0001 9.207C18.0001 10.3617 17.7727 11.5051 17.3308 12.572C16.8889 13.6388 16.2412 14.6081 15.4247 15.4247C14.6082 16.2412 13.6388 16.8889 12.572 17.3308C11.5052 17.7727 10.3618 18.0001 9.20703 18.0001" stroke="#AC00EA" stroke-width="1.5" stroke-linecap="round" stroke-linejoin="round"/>
<path d="M18 26.793C18 24.461 18.9264 22.2244 20.5754 20.5754C22.2245 18.9264 24.461 17.9999 26.7931 17.9999" stroke="#AC00EA" stroke-width="1.5" stroke-linecap="round" stroke-linejoin="round"/>
</svg>
