<svg width="36" height="36" viewBox="0 0 36 36" fill="none" xmlns="http://www.w3.org/2000/svg">
<rect x="0.310345" y="0.310345" width="35.3793" height="35.3793" rx="4.65517" fill="#AC00EA" fill-opacity="0.12" stroke="#AC00EA" stroke-width="0.62069"/>
<path d="M23.669 23.4992L23.2745 22.8311L23.2745 22.8311L23.669 23.4992ZM24.1012 22.742L23.3254 22.742L23.3254 22.742L24.1012 22.742ZM17.0902 26.2687L16.674 26.9235L16.674 26.9235L17.0902 26.2687ZM18.9278 26.2989L19.3223 26.9669L18.9278 26.2989ZM9.1223 14.6031L8.72511 13.9367L9.1223 14.6031ZM9.1223 15.3585L8.72511 16.025L9.1223 15.3585ZM18.4499 20.3806L18.8471 21.0471L18.4499 20.3806ZM17.5496 20.3806L17.9468 19.7142L17.9468 19.7142L17.5496 20.3806ZM26.8772 14.6031L27.2744 13.9367L26.8772 14.6031ZM26.8772 15.3585L26.48 14.692L26.8772 15.3585ZM12.7393 23.5031L13.1555 22.8483L13.1555 22.8483L12.7393 23.5031ZM18.4499 9.58099L18.0527 10.2475L18.0527 10.2475L18.4499 9.58099ZM17.5496 9.58099L17.9468 10.2475L17.9468 10.2475L17.5496 9.58099ZM27.7446 14.9662C27.7446 14.5377 27.3972 14.1903 26.9687 14.1903C26.5402 14.1903 26.1928 14.5377 26.1928 14.9662H27.7446ZM26.1928 19.7145C26.1928 20.143 26.5402 20.4903 26.9687 20.4903C27.3972 20.4903 27.7446 20.143 27.7446 19.7145H26.1928ZM18.0527 10.2475L26.48 15.2696L27.2744 13.9367L18.8471 8.9145L18.0527 10.2475ZM26.48 14.692L18.0527 19.7142L18.8471 21.0471L27.2744 16.025L26.48 14.692ZM9.51948 15.2696L17.9468 10.2475L17.1524 8.9145L8.72511 13.9367L9.51948 15.2696ZM17.9468 19.7142L12.7289 16.6046L11.9345 17.9376L17.1524 21.0471L17.9468 19.7142ZM12.7289 16.6046L9.51948 14.692L8.72511 16.025L11.9345 17.9376L12.7289 16.6046ZM11.5559 17.2711V22.761H13.1076V17.2711H11.5559ZM12.3231 24.1578L16.674 26.9235L17.5064 25.6139L13.1555 22.8483L12.3231 24.1578ZM19.3223 26.9669L24.0635 24.1673L23.2745 22.8311L18.5333 25.6308L19.3223 26.9669ZM24.8771 22.742L24.8771 17.2711L23.3254 17.2711L23.3254 22.742L24.8771 22.742ZM24.0635 24.1673C24.5677 23.8695 24.8771 23.3276 24.8771 22.742L23.3254 22.742C23.3254 22.7786 23.306 22.8125 23.2745 22.8311L24.0635 24.1673ZM16.674 26.9235C17.4783 27.4348 18.5016 27.4516 19.3223 26.9669L18.5333 25.6308C18.215 25.8187 17.8183 25.8122 17.5064 25.6139L16.674 26.9235ZM8.72511 13.9367C7.9341 14.4081 7.9341 15.5536 8.72511 16.025L9.51948 14.692C9.73827 14.8224 9.73828 15.1392 9.51948 15.2696L8.72511 13.9367ZM18.0527 19.7142C18.0201 19.7336 17.9794 19.7336 17.9468 19.7142L17.1524 21.0471C17.6745 21.3582 18.325 21.3582 18.8471 21.0471L18.0527 19.7142ZM26.48 15.2696C26.2612 15.1392 26.2612 14.8224 26.48 14.692L27.2744 16.025C28.0654 15.5536 28.0654 14.408 27.2744 13.9367L26.48 15.2696ZM11.5559 22.761C11.5559 23.3272 11.8453 23.8541 12.3231 24.1578L13.1555 22.8483C13.1257 22.8293 13.1076 22.7964 13.1076 22.761H11.5559ZM18.8471 8.9145C18.325 8.60339 17.6745 8.60339 17.1524 8.9145L17.9468 10.2475C17.9794 10.228 18.0201 10.228 18.0527 10.2475L18.8471 8.9145ZM26.1928 14.9662V19.7145H27.7446V14.9662H26.1928Z" fill="#AC00EA"/>
</svg>
