<svg width="36" height="36" viewBox="0 0 36 36" fill="none" xmlns="http://www.w3.org/2000/svg">
<rect x="0.310345" y="0.310345" width="35.3793" height="35.3793" rx="4.65517" fill="#AC00EA" fill-opacity="0.12" stroke="#AC00EA" stroke-width="0.62069"/>
<path d="M26.6259 10.913C25.2718 14.2895 21.8776 18.8795 19.0375 21.1569L17.3052 22.5462C17.0854 22.7045 16.8656 22.8452 16.6194 22.9419C16.6194 22.7836 16.6106 22.6078 16.5842 22.4407C16.4875 21.7021 16.1533 21.0162 15.5642 20.4271C14.9663 19.8291 14.2364 19.4774 13.489 19.3807C13.3131 19.3719 13.1373 19.3543 12.9614 19.3719C13.0581 19.0993 13.2076 18.8443 13.3923 18.6333L14.764 16.901C17.0326 14.0609 21.6402 10.6492 25.008 9.30382C25.5268 9.11037 26.028 9.25106 26.3445 9.57641C26.6787 9.90175 26.8369 10.403 26.6259 10.913Z" stroke="#AC00EA" stroke-width="1.6" stroke-linecap="round" stroke-linejoin="round"/>
<path d="M16.6196 22.9417C16.6196 23.909 16.2502 24.8322 15.5556 25.5356C15.0192 26.072 14.2894 26.4414 13.4189 26.5557L11.2558 26.7931C10.0775 26.925 9.06628 25.9225 9.20697 24.7266L9.44438 22.5636C9.65542 20.6379 11.2646 19.4069 12.9704 19.3717C13.1463 19.3629 13.3309 19.3716 13.498 19.3804C14.2454 19.4772 14.9752 19.8202 15.5732 20.4269C16.1623 21.016 16.4965 21.7018 16.5932 22.4404C16.602 22.6075 16.6196 22.7747 16.6196 22.9417Z" stroke="#AC00EA" stroke-width="1.6" stroke-linecap="round" stroke-linejoin="round"/>
<path d="M19.9697 20.1719C19.9697 17.8769 18.1056 16.0128 15.8105 16.0128" stroke="#AC00EA" stroke-width="1.6" stroke-linecap="round" stroke-linejoin="round"/>
</svg>
