<svg width="320" height="272" viewBox="0 0 320 272" fill="none" xmlns="http://www.w3.org/2000/svg">
<g clip-path="url(#clip0_44_13238)">
<path d="M198.036 186.453C200.296 157.984 201.249 143.019 190.497 126.969C179.745 110.919 174.408 17.9993 108.499 35.3972C94.0466 39.2221 73.3837 42.8626 83.0707 90.4932C92.7577 138.124 65.8736 131.469 82.1336 155.698C98.3936 179.928 58.1995 209.564 79.5364 235.919C100.873 262.275 63.6628 282.459 77.7536 295.43C82.9671 292.801 88.3311 290.494 93.8165 288.522C92.4163 286.167 91.4445 281.979 93.899 274.797C98.4428 261.512 106.19 245.355 95.9035 230.707C95.9035 230.707 109.455 234.883 104.158 265.121C102.435 275.054 102.755 281.198 103.97 284.974C108.774 283.555 114.062 282.208 119.668 281.111C117.742 277.985 116.778 274.342 116.899 270.651C117.316 259.66 121.857 255.042 121.035 246.256C121.035 246.256 126.359 258.833 124.095 266.732C123.475 268.965 123.336 271.308 123.686 273.601C124.036 275.894 124.868 278.082 126.125 280.017C140.844 277.586 155.902 278.404 170.282 282.413C213.816 295.519 224.831 257.276 224.831 257.276C224.831 257.276 195.859 214.89 198.036 186.453Z" fill="#263238"/>
<path d="M197.436 160.315L197.256 161.935L197.092 164.131C197.135 165.599 196.949 167.018 196.996 168.63C197.022 171.676 197.292 174.714 197.803 177.714C199.265 186.696 203.07 195.118 208.826 202.11C209.773 203.32 210.831 204.441 211.776 205.594L213.419 207.245L214.889 208.843C216.491 210.607 218.254 212.213 220.156 213.64C220.806 214.136 221.495 214.578 222.216 214.96C222.567 215.138 222.934 215.281 223.311 215.388L223.913 215.514L224.169 215.506C224.169 215.506 224.169 215.506 224.177 215.765C224.694 215.107 225.339 214.562 226.072 214.165C226.805 213.767 227.61 213.526 228.438 213.456C229.267 213.385 230.1 213.487 230.888 213.755C231.676 214.023 232.401 214.451 233.019 215.014C233.637 215.576 234.134 216.261 234.481 217.025C234.828 217.789 235.016 218.618 235.035 219.459C235.053 220.3 234.902 221.136 234.589 221.916C234.276 222.695 233.81 223.402 233.217 223.993L232.201 225.263C231.926 225.617 231.65 225.914 231.374 226.211C230.799 226.769 230.197 227.297 229.569 227.794C228.289 228.725 226.894 229.485 225.421 230.053C222.545 231.11 219.476 231.519 216.428 231.25C211.258 230.685 206.286 228.923 201.896 226.102C200.909 225.469 199.951 224.836 198.992 224.173L196.481 222.059C194.872 220.609 193.238 219.276 191.706 217.535C188.63 214.314 185.858 210.809 183.426 207.065C178.548 199.486 175.158 191.026 173.442 182.148C172.583 177.765 172.119 173.313 172.055 168.844C172.019 166.591 172.096 164.338 172.285 162.092C172.252 160.969 172.475 159.838 172.641 158.68L172.93 156.884L173.102 155.956L173.351 154.738C173.98 151.613 175.778 148.854 178.369 147.038C180.96 145.222 184.143 144.49 187.254 144.994C190.365 145.498 193.162 147.2 195.061 149.744C196.96 152.287 197.814 155.476 197.444 158.643L197.436 160.315Z" fill="#FBCECA"/>
<path d="M243.288 211.23L242.612 216.498C242.484 217.474 242.125 218.405 241.565 219.215C241.006 220.025 240.261 220.69 239.393 221.155L231.148 225.561C229.528 226.438 227.72 226.911 225.879 226.942C224.038 226.972 222.216 226.559 220.569 225.737L218.502 224.709C219.045 215.889 226.089 206.73 226.089 206.73L227.809 203.81C228.15 203.22 228.603 202.702 229.145 202.288C229.686 201.873 230.304 201.57 230.963 201.396C231.621 201.221 232.308 201.179 232.983 201.271C233.659 201.364 234.309 201.589 234.896 201.934L240.53 205.262C241.525 205.877 242.316 206.77 242.807 207.831C243.297 208.892 243.464 210.074 243.288 211.23Z" fill="#FBCECA"/>
<path d="M178.465 136.794C195.113 137.553 203.419 149.504 212.068 177.084C206.466 186.691 182.962 194.451 182.962 194.451C182.962 194.451 166.256 153.73 178.465 136.794Z" fill="#AC00EA"/>
<path opacity="0.7" d="M178.465 136.794C195.113 137.553 203.419 149.504 212.068 177.084C206.466 186.691 182.962 194.451 182.962 194.451C182.962 194.451 166.256 153.73 178.465 136.794Z" fill="white"/>
<path d="M161.849 290.715C152.215 335.681 145.192 333.841 204.29 469.582C193.276 539.186 269.773 658.144 269.773 658.144C276.802 658.212 289.074 655.849 291.755 652.831C278.033 613.513 250.94 514.973 242.303 450.956C234.112 389.974 221.371 310.842 214.219 264.172C213.479 259.52 211.425 245.531 211.425 245.531L163.487 260.464C163.487 260.464 163.411 283.319 161.849 290.715Z" fill="#AC00EA"/>
<g opacity="0.3">
<path d="M162.716 298.191C156.726 342.959 150.64 341.654 207.81 470.538C201.863 539.56 273.048 650.754 273.048 650.754C279.05 650.322 289.406 647.134 291.544 643.985C277.883 606.411 249.872 511.727 239.326 449.578C229.31 390.373 214.511 313.698 206.092 268.45C205.23 263.942 202.783 250.373 202.783 250.373L162.613 268.417C162.613 268.417 163.683 290.829 162.716 298.191Z" fill="black"/>
</g>
<path d="M183.409 300.935C183.409 300.935 189.199 433.432 181.674 478.972C174.289 523.494 40.6356 603.983 40.6356 603.983C37.6285 605.119 31.2826 589.046 31.6581 585.473C71.3379 543.278 108.553 474.149 139.075 463.822C105.48 352.945 110.971 331.526 129.594 293.11C133.843 284.294 131.142 264.808 131.142 264.808L182.479 257.916L183.409 300.935Z" fill="#AC00EA"/>
<g opacity="0.3">
<path d="M168.219 299.589C168.219 299.589 180.558 427.738 176.303 472.437C172.117 516.139 57.1311 603.411 57.1311 603.411C54.5075 604.719 47.9715 589.562 48.1135 586.07C81.2611 542.406 110.75 472.782 137.445 460.665C101.449 355.402 105.193 334.244 119.743 295.694C123.06 286.849 119.594 268.129 119.594 268.129L165.06 257.916L168.219 299.589Z" fill="black"/>
</g>
<path d="M203.06 164.046C205.896 174.797 207.995 185.731 209.343 196.771C211.731 212.826 213.601 228.724 216.213 255.293L136.348 270.506C133.7 247.589 126.35 222.313 102.338 174.171C100.96 171.653 100.167 168.854 100.019 165.983C99.8701 163.112 100.37 160.244 101.48 157.594C102.591 154.945 104.284 152.581 106.432 150.682C108.58 148.783 111.127 147.396 113.884 146.627C116.974 145.699 120.294 144.794 123.702 143.972C135.616 140.838 147.734 138.549 159.967 137.123C163.96 136.743 168.156 136.472 172.154 136.265C186.522 135.628 200.042 149.937 203.06 164.046Z" fill="#AC00EA"/>
<path d="M119.39 101.058C124.759 112.179 132.675 132.898 126.56 142.156C126.56 142.156 137.305 138.386 163.557 148.502C168.531 137.442 162.88 135.259 162.88 135.259C149.027 134.672 146.824 125.063 146.69 115.65L119.39 101.058Z" fill="#FBCECA"/>
<path d="M157.794 147.031C150.218 149.556 149.995 161.465 149.995 161.465C149.995 161.465 128.753 151.923 121.035 143.828C123.146 142.084 125.163 140.233 127.077 138.281C127.077 138.281 152.401 143.327 157.794 147.031Z" fill="white"/>
<path d="M165.442 144.678C165.442 144.678 172.434 145.213 176.644 154.201C175.187 136.762 166.712 135.351 166.712 135.351C164.367 134.534 161.806 134.611 159.514 135.57C161.411 136.141 163.047 137.368 164.132 139.034C165.216 140.701 165.681 142.7 165.442 144.678Z" fill="white"/>
<path opacity="0.2" d="M130.725 106.778L146.941 115.401C146.928 117.605 147.118 119.805 147.508 121.974C142.346 122.129 134.045 118.11 132.145 113.067C131.302 111.071 130.821 108.942 130.725 106.778Z" fill="black"/>
<path d="M106.855 78.6454C113.847 96.6028 116.417 104.23 128.663 111.247C147.072 121.642 167.561 110.384 166.076 91.0233C164.762 73.5838 153.575 47.1577 133.253 44.6402C128.932 43.967 124.509 44.4661 120.443 46.086C116.377 47.7059 112.814 50.3879 110.123 53.8546C107.432 57.3212 105.71 61.447 105.136 65.8053C104.561 70.1636 105.155 74.5963 106.855 78.6454Z" fill="#FBCECA"/>
<path d="M146.451 76.0106C149.015 79.1728 151.977 81.9855 155.261 84.378C154.662 85.1492 153.897 85.7735 153.025 86.2039C152.152 86.6342 151.195 86.8595 150.224 86.8627L146.451 76.0106Z" fill="#D58F8E"/>
<path d="M144.524 96.0482C145.416 95.9331 146.296 95.7434 147.153 95.4812C147.212 95.4643 147.266 95.436 147.313 95.398C147.359 95.36 147.396 95.3133 147.422 95.2608C147.448 95.2083 147.462 95.1513 147.463 95.0934C147.464 95.0356 147.452 94.9783 147.427 94.9252C147.378 94.815 147.289 94.7255 147.175 94.6732C147.061 94.6209 146.931 94.6094 146.808 94.6409C144.865 95.2415 142.802 95.4152 140.779 95.1487C138.755 94.8821 136.823 94.1823 135.131 93.1028C135.038 93.0264 134.917 92.986 134.793 92.9894C134.67 92.9929 134.552 93.04 134.463 93.1215C134.419 93.1636 134.385 93.2136 134.362 93.2684C134.34 93.3232 134.329 93.3817 134.331 93.4405C134.332 93.4993 134.347 93.5572 134.373 93.6106C134.399 93.664 134.436 93.712 134.482 93.7516C137.409 95.6667 140.988 96.4853 144.524 96.0482Z" fill="#263238"/>
<path d="M132.574 78.2732C133.16 79.7819 134.443 80.7509 135.49 80.4598C136.536 80.1687 136.777 78.6635 136.191 77.1548C135.605 75.646 134.35 74.6761 133.275 74.9681C132.2 75.2601 131.988 76.7644 132.574 78.2732Z" fill="#263238"/>
<path d="M151.919 71.9308C152.505 73.4393 153.789 74.4081 154.835 74.0883C155.881 73.7684 156.123 72.2924 155.537 70.7839C154.95 69.2755 153.695 68.3058 152.621 68.6265C151.546 68.9472 151.219 70.4259 151.919 71.9308Z" fill="#263238"/>
<path d="M152.28 68.7834L155.504 66.6377C155.504 66.6377 154.738 69.9916 152.28 68.7834Z" fill="#263238"/>
<path d="M126.989 70.0193C127.1 69.9733 127.199 69.9011 127.276 69.8089C127.353 69.7166 127.407 69.6071 127.433 69.4897C127.703 68.3764 128.241 67.346 129 66.4881C129.76 65.6303 130.717 64.9711 131.789 64.568C131.904 64.5354 132.011 64.4792 132.103 64.403C132.195 64.3268 132.27 64.2322 132.324 64.1253C132.377 64.0185 132.408 63.9016 132.414 63.7823C132.42 63.6629 132.401 63.5437 132.358 63.4322C132.272 63.1934 132.096 62.9978 131.868 62.8868C131.64 62.7758 131.377 62.7583 131.136 62.838C129.77 63.3113 128.545 64.1214 127.574 65.1935C126.603 66.2656 125.918 67.5651 125.582 68.9717C125.527 69.2129 125.569 69.4659 125.699 69.6764C125.828 69.8869 126.035 70.0383 126.275 70.0982C126.514 70.1611 126.769 70.133 126.989 70.0193Z" fill="#263238"/>
<path d="M156.229 61.368C156.349 61.3631 156.467 61.334 156.575 61.2826C156.684 61.2311 156.78 61.1584 156.857 61.0692C157.025 60.8914 157.116 60.6573 157.108 60.4164C157.101 60.1756 156.997 59.9471 156.819 59.7794C155.66 58.8085 154.285 58.1083 152.802 57.7329C151.319 57.3574 149.766 57.3167 148.263 57.6138C148.147 57.6457 148.038 57.7007 147.945 57.7753C147.852 57.8498 147.776 57.9423 147.722 58.0468C147.668 58.1514 147.637 58.2657 147.631 58.3824C147.625 58.4992 147.644 58.6158 147.687 58.725C147.768 58.959 147.938 59.1548 148.161 59.2731C148.385 59.3915 148.647 59.4238 148.894 59.3635C150.091 59.1494 151.323 59.1996 152.496 59.5106C153.67 59.8216 154.755 60.3853 155.672 61.1597C155.828 61.2867 156.024 61.36 156.229 61.368Z" fill="#263238"/>
<path d="M132.934 75.154L136.156 72.9793C136.156 72.9793 135.392 76.3626 132.934 75.154Z" fill="#263238"/>
<path d="M126.81 47.0348C130.207 49.0275 132.986 51.9168 134.841 55.3845C136.701 54.5148 138.694 53.9613 140.738 53.7469C138.38 49.9316 134.619 47.1876 130.258 46.1008C133.117 46.1621 135.922 46.8836 138.453 48.2088C140.984 49.534 143.172 51.4267 144.844 53.7381C148.48 54.1523 152.007 55.2307 155.25 56.9191C155.25 56.9191 136.122 27.798 111.435 41.8554C86.7476 55.9127 107.316 91.0328 107.316 91.0328L112.31 90.8828C112.31 90.8828 123.773 90.023 110.457 67.0845C110.457 67.0845 119.33 69.9393 120.017 76.6482C120.017 76.6482 122.89 64.0479 131.514 57.4889C130.885 53.6549 129.264 50.0515 126.81 47.0348Z" fill="#263238"/>
<path d="M106.96 87.7363C106.96 87.7363 76.5785 63.0732 110.88 37.704C110.88 37.704 84.1344 37.9727 83.9652 13.7131L116.214 32.0946L135.906 2.0705C135.906 2.0705 147.758 17.6163 122.335 34.8473C122.335 34.8473 135.153 28.8942 145.545 42.2656C145.545 42.2656 129.628 32.8668 115.177 42.4143C88.6248 59.9679 106.96 87.7363 106.96 87.7363Z" fill="#AC00EA"/>
<path d="M103.818 95.888C106.802 98.7826 110.814 100.381 114.979 100.335C120.288 100.175 120.986 94.6564 117.866 90.1684C115.048 86.1582 108.991 81.4148 104.322 83.7886C99.653 86.1624 100.005 92.2512 103.818 95.888Z" fill="#FBCECA"/>
<path d="M184.328 177.137L167.809 154.092C167.809 154.092 178.96 164.12 181.041 158.889C182.772 154.473 169.649 151.424 165.413 150.547C165.022 150.472 164.618 150.5 164.241 150.627C163.863 150.754 163.524 150.976 163.257 151.272C159.737 155.255 147.15 170.394 155.381 175.6C164.982 181.598 163.328 153.682 163.328 153.682L167.743 183.927L171.628 184.556L165.679 154.702L182.428 180.698L184.328 177.137ZM179.07 158.116C178.122 159.982 170.34 153.47 170.34 153.47C170.34 153.47 180.131 156.218 179.156 158.114L179.07 158.116ZM156.295 172.587C152.183 168.174 161.539 156.148 161.539 156.148C161.539 156.148 160.492 176.996 156.381 172.584L156.295 172.587Z" fill="#263238"/>
<path d="M281.112 177.087L186.041 179.675L186.583 198.004L281.683 195.415C280.65 189.354 280.458 183.195 281.112 177.087Z" fill="#AC00EA"/>
<path opacity="0.7" d="M281.112 177.087L186.041 179.675L186.583 198.004L281.683 195.415C280.65 189.354 280.458 183.195 281.112 177.087Z" fill="white"/>
<path d="M203.636 198.229L174.002 199.104L173.705 198.829C172.256 197.493 171.091 195.888 170.276 194.108C169.46 192.328 169.01 190.406 168.952 188.454C168.894 186.502 169.229 184.558 169.938 182.732C170.646 180.907 171.714 179.237 173.08 177.817L173.36 177.525L202.995 176.65L201.286 178.432C198.921 180.911 197.65 184.209 197.751 187.604C197.851 190.999 199.316 194.216 201.825 196.551L203.636 198.229Z" fill="#AC00EA"/>
<g opacity="0.3">
<path d="M203.636 196.34L175.027 198.844L174.724 198.61C173.249 197.471 172.032 196.072 171.144 194.491C170.255 192.91 169.713 191.18 169.547 189.399C169.381 187.617 169.596 185.821 170.179 184.111C170.761 182.402 171.701 180.813 172.942 179.437L173.197 179.154L201.806 176.65L200.254 178.377C198.105 180.78 197.061 183.867 197.349 186.965C197.637 190.064 199.234 192.92 201.79 194.911L203.636 196.34Z" fill="black"/>
</g>
<path d="M282.635 196.57L202.006 198.809C199.104 196.3 197.336 192.844 197.065 189.147C196.922 187.189 197.216 185.223 197.927 183.375C198.639 181.527 199.752 179.838 201.198 178.415L201.48 178.134L282.109 175.896C282.381 175.888 282.646 175.98 282.847 176.153C283.048 176.326 283.168 176.566 283.184 176.821C283.191 177.082 283.088 177.334 282.898 177.524C282.707 177.713 282.444 177.824 282.166 177.832L202.322 180.049C200.114 182.404 198.938 185.455 199.031 188.588C199.124 191.72 200.479 194.701 202.823 196.93L282.58 194.715C282.852 194.708 283.117 194.8 283.318 194.973C283.519 195.146 283.639 195.385 283.655 195.641C283.64 195.887 283.527 196.12 283.338 196.292C283.149 196.464 282.898 196.563 282.635 196.57Z" fill="#AC00EA"/>
<path d="M274.229 136.989L188.67 139.317L189.155 155.73L274.715 153.401C273.793 147.974 273.629 142.458 274.229 136.989Z" fill="#AC00EA"/>
<path opacity="0.8" d="M274.229 136.989L188.67 139.317L189.155 155.73L274.715 153.401C273.793 147.974 273.629 142.458 274.229 136.989Z" fill="white"/>
<path d="M204.667 156.033L177.83 156.825L177.562 156.578C174.938 154.144 173.405 150.786 173.3 147.24C173.194 143.694 174.525 140.251 177.001 137.667L177.252 137.375L204.089 136.583L202.548 138.189C201.484 139.292 200.652 140.59 200.1 142.008C199.548 143.427 199.287 144.939 199.333 146.457C199.378 147.975 199.728 149.469 200.363 150.853C200.998 152.237 201.905 153.483 203.033 154.521L204.667 156.033Z" fill="#263238"/>
<path d="M275.606 154.542L202.942 156.56C200.33 154.301 198.73 151.195 198.466 147.868C198.347 146.106 198.617 144.339 199.258 142.678C199.9 141.016 200.899 139.496 202.194 138.212L202.447 137.932L275.112 135.914C275.236 135.911 275.361 135.931 275.477 135.973C275.593 136.016 275.699 136.079 275.788 136.161C275.877 136.243 275.948 136.34 275.996 136.448C276.044 136.556 276.069 136.672 276.069 136.788C276.076 137.02 275.984 137.245 275.815 137.413C275.645 137.582 275.411 137.68 275.164 137.687L203.314 139.682C201.319 141.792 200.255 144.535 200.338 147.352C200.422 150.169 201.647 152.849 203.763 154.845L275.556 152.851C275.681 152.848 275.805 152.868 275.921 152.91C276.037 152.953 276.143 153.017 276.232 153.098C276.321 153.18 276.392 153.277 276.44 153.385C276.489 153.493 276.513 153.609 276.513 153.726C276.498 153.943 276.396 154.148 276.228 154.299C276.06 154.45 275.839 154.537 275.606 154.542Z" fill="#AC00EA"/>
<g opacity="0.4">
<path d="M275.617 151.629L203.758 156.4C201.067 154.606 199.338 152.056 198.921 149.264C198.721 147.783 198.906 146.283 199.463 144.855C200.021 143.428 200.94 142.105 202.162 140.968L202.4 140.721L274.259 135.95C274.382 135.941 274.506 135.953 274.623 135.984C274.74 136.015 274.847 136.064 274.94 136.129C275.032 136.194 275.107 136.273 275.159 136.362C275.212 136.451 275.242 136.547 275.247 136.646C275.264 136.841 275.184 137.034 275.024 137.183C274.864 137.332 274.637 137.425 274.393 137.441L203.339 142.159C201.462 144.022 200.537 146.379 200.751 148.75C200.965 151.12 202.303 153.327 204.492 154.92L275.489 150.206C275.612 150.197 275.736 150.209 275.853 150.24C275.97 150.271 276.077 150.32 276.17 150.385C276.262 150.45 276.336 150.529 276.389 150.618C276.442 150.707 276.472 150.803 276.477 150.902C276.472 151.086 276.381 151.263 276.222 151.397C276.063 151.531 275.847 151.614 275.617 151.629Z" fill="white"/>
</g>
<path d="M274.01 116.993L188.452 119.322L188.94 135.821L274.498 133.491C273.565 128.036 273.401 122.49 274.01 116.993Z" fill="#AC00EA"/>
<path opacity="0.8" d="M274.01 116.993L188.452 119.322L188.94 135.821L274.498 133.491C273.565 128.036 273.401 122.49 274.01 116.993Z" fill="white"/>
<path d="M204.449 136.008L177.611 136.8L177.344 136.553C174.72 134.119 173.187 130.76 173.081 127.215C172.976 123.669 174.307 120.226 176.782 117.642L177.034 117.379L203.872 116.587L202.331 118.193C201.25 119.283 200.402 120.576 199.84 121.994C199.277 123.412 199.01 124.927 199.056 126.448C199.101 127.969 199.457 129.465 200.103 130.848C200.749 132.23 201.671 133.471 202.815 134.495L204.449 136.008Z" fill="#AC00EA"/>
<g opacity="0.4">
<path d="M204.449 134.302L178.535 136.567L178.263 136.356C175.588 134.283 173.917 131.302 173.616 128.068C173.315 124.834 174.41 121.611 176.659 119.107L176.888 118.852L202.802 116.587L201.402 118.143C200.417 119.202 199.67 120.432 199.205 121.76C198.74 123.088 198.567 124.488 198.696 125.875C198.825 127.263 199.254 128.61 199.956 129.836C200.658 131.062 201.62 132.143 202.784 133.013L204.449 134.302Z" fill="white"/>
</g>
<path d="M275.389 134.517L202.725 136.534C200.118 134.26 198.52 131.148 198.248 127.815C198.129 126.053 198.399 124.286 199.041 122.625C199.682 120.963 200.681 119.443 201.976 118.159L202.23 117.906L274.895 115.889C275.142 115.882 275.381 115.967 275.56 116.126C275.74 116.285 275.844 116.504 275.851 116.736C275.858 116.967 275.766 117.192 275.597 117.36C275.427 117.529 275.193 117.627 274.947 117.634L203.096 119.629C201.106 121.747 200.045 124.493 200.129 127.313C200.212 130.133 201.434 132.816 203.547 134.819L275.339 132.826C275.586 132.819 275.825 132.904 276.005 133.063C276.184 133.222 276.288 133.441 276.295 133.673C276.287 133.895 276.189 134.106 276.02 134.263C275.852 134.42 275.626 134.51 275.389 134.517Z" fill="#AC00EA"/>
<g opacity="0.5">
<path d="M275.4 131.603L203.541 136.374C200.854 134.568 199.127 132.012 198.702 129.215C198.502 127.735 198.687 126.234 199.244 124.807C199.802 123.379 200.721 122.056 201.943 120.919L202.183 120.695L274.042 115.924C274.286 115.908 274.527 115.97 274.712 116.096C274.897 116.222 275.01 116.403 275.028 116.597C275.046 116.792 274.966 116.985 274.806 117.134C274.645 117.284 274.419 117.377 274.175 117.393L203.12 122.111C201.248 123.98 200.326 126.339 200.541 128.712C200.755 131.085 202.09 133.295 204.275 134.894L275.272 130.18C275.516 130.164 275.757 130.226 275.942 130.352C276.127 130.478 276.24 130.658 276.258 130.853C276.26 131.041 276.173 131.223 276.013 131.362C275.854 131.502 275.635 131.588 275.4 131.603Z" fill="white"/>
</g>
<path d="M274.906 199.372L189.349 201.701L189.838 218.229L275.395 215.899C274.462 210.434 274.298 204.879 274.906 199.372Z" fill="#AC00EA"/>
<path opacity="0.8" d="M274.906 199.372L189.349 201.701L189.838 218.229L275.395 215.899C274.462 210.434 274.298 204.879 274.906 199.372Z" fill="white"/>
<path d="M205.346 218.416L178.509 219.208L178.242 218.961C175.617 216.527 174.084 213.168 173.979 209.623C173.873 206.077 175.204 202.634 177.68 200.049L177.931 199.758L204.768 198.966L203.228 200.601C202.147 201.691 201.299 202.984 200.737 204.402C200.174 205.82 199.908 207.335 199.953 208.856C199.998 210.377 200.354 211.873 201 213.256C201.646 214.638 202.568 215.879 203.712 216.904L205.346 218.416Z" fill="#263238"/>
<path d="M276.285 216.925L203.62 218.943C201.008 216.684 199.409 213.577 199.144 210.251C199.026 208.489 199.295 206.722 199.937 205.06C200.578 203.399 201.577 201.879 202.872 200.595L203.126 200.315L275.79 198.297C275.915 198.294 276.039 198.314 276.155 198.356C276.271 198.398 276.377 198.462 276.466 198.544C276.556 198.625 276.627 198.723 276.675 198.831C276.723 198.939 276.748 199.054 276.747 199.171C276.754 199.403 276.663 199.627 276.493 199.796C276.323 199.964 276.09 200.063 275.843 200.07L203.992 202.065C202.002 204.183 200.941 206.929 201.025 209.749C201.109 212.568 202.33 215.251 204.443 217.255L276.235 215.262C276.482 215.255 276.721 215.34 276.901 215.499C277.08 215.658 277.185 215.877 277.191 216.108C277.176 216.326 277.075 216.531 276.907 216.682C276.739 216.833 276.517 216.92 276.285 216.925Z" fill="#AC00EA"/>
<path d="M274.444 157.015L188.886 159.344L189.374 175.843L274.932 173.513C273.999 168.058 273.835 162.512 274.444 157.015Z" fill="#AC00EA"/>
<path opacity="0.7" d="M274.444 157.015L188.886 159.344L189.374 175.843L274.932 173.513C273.999 168.058 273.835 162.512 274.444 157.015Z" fill="white"/>
<path d="M204.883 176.059L178.047 176.851L177.778 176.575C175.154 174.141 173.621 170.783 173.515 167.237C173.41 163.691 174.741 160.248 177.216 157.664L177.469 157.401L204.305 156.609L202.765 158.215C201.683 159.305 200.836 160.598 200.274 162.016C199.711 163.435 199.444 164.949 199.489 166.47C199.535 167.991 199.891 169.488 200.537 170.87C201.182 172.253 202.105 173.493 203.249 174.518L204.883 176.059Z" fill="#AC00EA"/>
<g opacity="0.6">
<path d="M204.883 174.352L178.972 176.618L178.697 176.381C176.022 174.308 174.351 171.326 174.05 168.092C173.75 164.857 174.844 161.634 177.093 159.129L177.322 158.875L203.234 156.609L201.834 158.165C200.849 159.224 200.102 160.454 199.638 161.783C199.173 163.111 199 164.511 199.129 165.899C199.258 167.286 199.686 168.633 200.388 169.86C201.091 171.086 202.052 172.167 203.216 173.038L204.883 174.352Z" fill="white"/>
</g>
<path d="M275.824 174.568L203.159 176.585C200.547 174.326 198.948 171.22 198.683 167.894C198.562 166.127 198.83 164.356 199.472 162.689C200.113 161.023 201.113 159.498 202.41 158.21L202.664 157.958L275.329 155.94C275.576 155.933 275.815 156.018 275.994 156.177C276.174 156.336 276.278 156.555 276.285 156.787C276.293 156.904 276.275 157.021 276.233 157.131C276.191 157.241 276.126 157.342 276.042 157.429C275.958 157.515 275.856 157.585 275.742 157.634C275.629 157.682 275.506 157.709 275.382 157.713L203.531 159.708C201.536 161.818 200.472 164.561 200.555 167.378C200.639 170.195 201.864 172.874 203.981 174.87L275.773 172.877C276.02 172.87 276.259 172.956 276.439 173.114C276.618 173.273 276.723 173.492 276.729 173.724C276.721 173.946 276.623 174.157 276.455 174.314C276.286 174.471 276.061 174.562 275.824 174.568Z" fill="#AC00EA"/>
<g opacity="0.3">
<path d="M275.835 171.654L203.976 176.425C201.284 174.632 199.555 172.081 199.138 169.289C198.936 167.805 199.119 166.301 199.676 164.869C200.234 163.438 201.153 162.111 202.377 160.97L202.617 160.747L274.476 155.975C274.72 155.959 274.961 156.021 275.146 156.147C275.331 156.273 275.445 156.454 275.462 156.649C275.475 156.747 275.463 156.846 275.427 156.941C275.39 157.035 275.331 157.124 275.251 157.2C275.172 157.276 275.074 157.339 274.964 157.385C274.854 157.431 274.734 157.459 274.611 157.467L203.557 162.185C201.68 164.048 200.754 166.404 200.968 168.775C201.182 171.146 202.52 173.352 204.709 174.945L275.706 170.231C275.95 170.215 276.191 170.277 276.376 170.403C276.561 170.529 276.675 170.71 276.692 170.904C276.694 171.092 276.607 171.274 276.448 171.414C276.288 171.553 276.069 171.639 275.835 171.654Z" fill="white"/>
</g>
<path d="M215.835 200.922L209.837 199.789C208.723 199.58 207.573 199.637 206.485 199.958C205.397 200.278 204.402 200.851 203.583 201.629L195.82 208.961C194.269 210.424 193.1 212.236 192.412 214.243C191.724 216.25 191.538 218.392 191.869 220.485L192.234 223.098C202.077 225.656 214.593 221.234 214.593 221.234L218.285 220.383C219.051 220.226 219.779 219.92 220.426 219.484C221.073 219.048 221.626 218.489 222.054 217.84C222.482 217.191 222.776 216.465 222.92 215.703C223.063 214.941 223.052 214.159 222.889 213.402L221.261 206.122C220.971 204.824 220.303 203.639 219.338 202.714C218.373 201.79 217.155 201.167 215.835 200.922Z" fill="#FBCECA"/>
<path d="M204.976 210.379C204.527 209.693 203.942 209.103 203.258 208.644C202.574 208.186 201.804 207.869 200.993 207.712C200.183 207.555 199.349 207.562 198.541 207.731C197.732 207.9 196.967 208.229 196.289 208.697L196.145 208.702C191.512 211.695 186.746 215.034 182.026 218.001C177.306 220.968 172.501 223.995 167.713 226.622C163.171 229.254 158.424 231.524 153.519 233.411C151.84 234.062 150.099 234.544 148.322 234.851C146.153 231.604 144.038 228.242 142.092 224.732C139.743 220.291 137.507 215.762 135.44 211.084C133.372 206.407 131.476 201.668 129.696 196.982C128.789 194.554 127.912 192.154 127.091 189.723C126.27 187.293 125.446 184.748 124.779 182.627L124.768 182.256C123.731 179.281 121.582 176.815 118.765 175.366C115.948 173.916 112.677 173.593 109.625 174.464C106.573 175.334 103.974 177.331 102.361 180.045C100.749 182.758 100.247 185.98 100.958 189.047C101.799 192.162 102.566 194.709 103.513 197.535C104.461 200.362 105.402 202.989 106.403 205.671C108.461 211.005 110.749 216.303 113.292 221.48C115.862 226.729 118.714 231.837 121.835 236.784C125.06 241.838 128.637 246.663 132.541 251.223L132.898 251.612C133.291 252.086 133.739 252.513 134.231 252.886C137.037 255.054 140.415 256.371 143.96 256.678C146.469 256.919 149.002 256.756 151.46 256.197C155.132 255.372 158.683 254.086 162.027 252.37C167.681 249.471 173.054 246.061 178.078 242.185C182.921 238.5 187.499 234.624 191.87 230.582C196.242 226.541 200.41 222.42 204.45 217.903C205.375 216.888 205.929 215.594 206.024 214.23C206.12 212.866 205.75 211.51 204.976 210.379Z" fill="#FBCECA"/>
<path d="M107.318 148.375C93.9438 158.554 93.802 173.171 101.905 200.881C111.898 205.562 135.676 198.524 135.676 198.524C135.676 198.524 126.868 155.503 107.318 148.375Z" fill="#AC00EA"/>
<path opacity="0.7" d="M107.318 148.375C93.9438 158.554 93.802 173.171 101.905 200.881C111.898 205.562 135.676 198.524 135.676 198.524C135.676 198.524 126.868 155.503 107.318 148.375Z" fill="white"/>
</g>
<defs>
<clipPath id="clip0_44_13238">
<rect width="320" height="271.937" fill="white" transform="matrix(-1 0 0 1 320 0)"/>
</clipPath>
</defs>
</svg>
